<?xml version="1.0" standalone="no"?>
<!DOCTYPE svg PUBLIC "-//W3C//DTD SVG 20010904//EN"
 "http://www.w3.org/TR/2001/REC-SVG-20010904/DTD/svg10.dtd">
<svg version="1.0" xmlns="http://www.w3.org/2000/svg"
 width="272.000000pt" height="92.000000pt" viewBox="0 0 272.000000 92.000000"
 preserveAspectRatio="xMidYMid meet">

<g transform="translate(0.000000,92.000000) scale(0.100000,-0.100000)"
fill="#000000" stroke="none">
<path d="M1217 862 c-15 -16 -17 -47 -17 -220 0 -241 0 -242 100 -242 52 0 60
-2 60 -19 0 -17 -10 -19 -100 -23 -91 -3 -103 -6 -141 -33 -24 -17 -53 -50
-66 -74 -20 -38 -23 -59 -23 -148 0 -96 1 -103 20 -103 19 0 20 7 20 93 0 110
21 166 72 197 48 29 218 29 255 0 35 -27 102 -27 137 1 24 19 37 20 135 17
100 -3 112 -5 137 -28 42 -39 54 -80 54 -185 0 -88 1 -95 20 -95 19 0 20 7 20
103 -1 191 -63 257 -245 257 -78 0 -85 2 -85 20 0 18 7 20 59 20 43 0 65 5 82
19 24 19 24 21 24 219 0 183 -2 202 -19 221 -18 20 -28 21 -251 21 -212 0
-233 -2 -248 -18z m473 -41 c6 -11 10 -89 10 -181 0 -92 -4 -170 -10 -181 -10
-18 -23 -19 -215 -19 -112 0 -210 3 -219 6 -14 5 -16 32 -16 193 0 103 3 191
7 194 3 4 102 7 219 7 201 0 214 -1 224 -19z m-160 -450 c0 -33 -30 -61 -65
-61 -35 0 -65 28 -65 61 l0 29 65 0 65 0 0 -29z"/>
<path d="M1158 168 c-2 -7 -2 -48 0 -90 3 -70 6 -78 23 -78 18 0 20 6 17 87
-2 72 -6 88 -19 91 -9 2 -18 -3 -21 -10z"/>
<path d="M1740 91 c0 -85 1 -91 20 -91 20 0 21 5 18 87 -3 74 -6 88 -20 91
-16 3 -18 -6 -18 -87z"/>
</g>
</svg>
